<?xml version="1.0" encoding="UTF-8"?>
<svg xmlns="http://www.w3.org/2000/svg" viewBox="0 0 800 500" width="800" height="500">
<title>Architecture Diagram</title>
<defs>
<linearGradient id="g1" x1="0%" y1="0%" x2="100%" y2="100%">
<stop offset="0%" style="stop-color:#0f172a"/>
<stop offset="100%" style="stop-color:#1e293b"/>
</linearGradient>
<linearGradient id="g2" x1="0%" y1="0%" x2="100%" y2="100%">
<stop offset="0%" style="stop-color:#3b82f6"/>
<stop offset="100%" style="stop-color:#8b5cf6"/>
</linearGradient>
</defs>
<rect width="800" height="500" fill="url(#g1)"/><rect x="300" y="50" width="200" height="60" rx="8" fill="#3b82f6" opacity="0.8"/><text x="400" y="85" font-family="Arial" font-size="12" fill="#fff" text-anchor="middle">Frontend</text><rect x="300" y="150" width="200" height="60" rx="8" fill="#8b5cf6" opacity="0.8"/><text x="400" y="185" font-family="Arial" font-size="12" fill="#fff" text-anchor="middle">API Gateway</text><rect x="150" y="280" width="150" height="60" rx="8" fill="#10b981" opacity="0.8"/><text x="225" y="315" font-family="Arial" font-size="12" fill="#fff" text-anchor="middle">Service A</text><rect x="350" y="280" width="150" height="60" rx="8" fill="#f59e0b" opacity="0.8"/><text x="425" y="315" font-family="Arial" font-size="12" fill="#fff" text-anchor="middle">Service B</text><rect x="550" y="280" width="150" height="60" rx="8" fill="#ef4444" opacity="0.8"/><text x="625" y="315" font-family="Arial" font-size="12" fill="#fff" text-anchor="middle">Database</text><line x1="400" y1="110" x2="400" y2="150" stroke="#94a3b8" stroke-width="2"/><line x1="400" y1="210" x2="225" y2="280" stroke="#94a3b8" stroke-width="2"/><line x1="400" y1="210" x2="425" y2="280" stroke="#94a3b8" stroke-width="2"/><line x1="400" y1="210" x2="625" y2="280" stroke="#94a3b8" stroke-width="2"/>
</svg>